<svg class="icon" viewBox="0 0 1024 1024" version="1.1" xmlns="http://www.w3.org/2000/svg" p-id="486">
    <path d="M372.42665562 321.44H632.10665563c33.12 0 57.6 14.4 72.23999999 44.16 5.52 11.04 7.44 23.04 7.2 35.52-0.24 69.36 0 139.2 0 208.56v112.32c0 46.8-32.4 79.44-79.44 79.44-173.28 0.24-346.56 0-519.6 0-35.28 0-63.84-18.96-75.36-49.68C33.78665563 742.64 32.10665562 733.04 32.10665562 723.2c0-107.52-0.24-215.04 0-322.56 0-45.84 33.84-79.2 80.16-79.2h260.16z m0.48000001 439.44c86.64 0 173.52-0.24 260.16 0.24 22.8 0.24 40.08-16.8 39.83999999-39.84-0.24-107.04-0.24-213.84-0.24-320.88 0-24.72-15.12-40.08-40.08-40.08H112.26665562c-24.24 0-39.6 14.88-39.59999999 39.12-0.24 107.28 0 214.8 0 322.08 0 6.24 0.48 12.24 3.36 18 7.68 14.88 19.92 21.6 36.72 21.6 86.64-0.24 173.52-0.24 260.16-0.24z" fill="#36dac1" p-id="487"></path>
    <path d="M992.10665563 512.48v307.68c0 21.6-6.96 40.08-25.2 53.04-10.56 7.68-22.56 11.04-35.52 11.04-55.92 0.24-111.84 0-168 0-8.64 0-12-3.6-12.24-12.24-0.24-5.28-0.24-10.8 0-16.08 0.24-8.16 3.84-11.76 12.24-12 11.52-0.24 22.8 0 34.32 0h130.56c16.32 0 23.28-6.96 23.28-23.28 0-28.08-0.24-56.16 0.24-84.24 0-4.8-1.68-6-6.24-6-60.24 0.24-120.24 0.24-180.48 0.24-12.24 0-15.12-2.64-15.12-15.12 0-4.08-0.24-8.4 0-12.72 0.24-8.64 3.84-12.24 12.24-12.24h4.56c59.52 0 118.8 0 178.32 0.24 5.04 0 6.72-0.96 6.72-6.48-0.24-159.84-0.24-319.68-0.24-479.52 0-5.76-0.24-11.52-3.84-16.56-4.08-5.76-9.6-8.64-16.56-8.64H628.02665562c-18.24 0-25.68 7.44-25.68 25.68v64.8c0 10.32-3.36 13.68-13.68 13.92-5.28 0-10.8 0.24-16.08-0.24-6.96-0.48-10.32-3.84-10.32-10.56-0.24-25.68-0.96-51.6 0.48-77.28 1.68-32.16 27.84-56.4 60.24-56.4 102.72-0.24 205.68-0.24 308.16000001 0 35.52 0.24 60.48 27.36 60.48 64.8 0.72 102.72 0.48 205.44 0.48 308.16zM372.42665562 883.28H48.18665562c-12.96 0-15.84-2.88-15.84-15.84 0-4.08-0.24-8.4 0-12.72 0.48-7.92 4.08-11.28 12-11.76h651.6c1.68 0 3.36-0.24 5.04 0 6.72 0.48 10.32 3.84 10.56 10.56 0.48 6.48 0.24 12.96 0 19.44-0.24 6.48-3.84 9.36-10.08 10.08-2.4 0.24-4.56 0.24-6.96 0.24H372.42665562z" fill="#36dac1" p-id="488"></path>
    <path d="M804.42665562 786.32c-0.24 14.4-12.48 26.64-26.64 26.64-14.4 0-26.64-12.24-26.88-26.64 0-14.64 12.48-26.88 27.12-26.88 14.64 0.24 26.4 12.24 26.4 26.88z" fill="#36dac1" p-id="489"></path>
</svg>
