<svg class="icon" viewBox="0 0 1024 1024" version="1.1" xmlns="http://www.w3.org/2000/svg" p-id="464">
    <path d="M372.136585 449.560976c-9.990244 9.990244-9.990244 24.97561 0 34.965853 9.990244 9.990244 24.97561 9.990244 34.965854 0 32.468293-32.468293 87.414634-32.468293 119.882927 0 14.985366 14.985366 24.97561 37.463415 24.97561 59.941464 0 22.478049-9.990244 44.956098-24.97561 59.941463-32.468293 32.468293-87.414634 32.468293-119.882927 0-9.990244-9.990244-24.97561-9.990244-34.965854 0-9.990244 9.990244-9.990244 24.97561 0 34.965854 27.473171 27.473171 59.941463 39.960976 94.907317 39.960975s69.931707-12.487805 94.907318-39.960975c24.97561-24.97561 39.960976-59.941463 39.960975-94.907317S586.926829 474.536585 561.95122 449.560976c-49.95122-52.44878-137.365854-52.44878-189.814635 0zM756.760976 219.785366c-9.990244 9.990244-9.990244 24.97561 0 34.965854 12.487805 12.487805 17.482927 27.473171 17.482926 44.956097s-7.492683 32.468293-17.482926 44.956098c-24.97561 24.97561-64.936585 24.97561-89.912196 0-12.487805-12.487805-17.482927-27.473171-17.482926-44.956098s7.492683-32.468293 17.482926-44.956097c9.990244-9.990244 9.990244-24.97561 0-34.965854s-24.97561-9.990244-34.965853 0c-22.478049 22.478049-32.468293 49.95122-32.468293 79.921951 0 29.970732 12.487805 57.443902 32.468293 79.921951 22.478049 22.478049 49.95122 32.468293 79.921951 32.468293s57.443902-9.990244 79.921951-32.468293c22.478049-22.478049 32.468293-49.95122 32.468293-79.921951 0-29.970732-12.487805-57.443902-32.468293-79.921951-9.990244-9.990244-24.97561-9.990244-34.965853 0z" fill="#3639A4" p-id="465"></path>
    <path d="M984.039024 99.902439c2.497561-19.980488-4.995122-39.960976-17.482926-52.44878-14.985366-14.985366-32.468293-22.478049-52.448781-22.478049-94.907317 4.995122-342.165854 42.458537-564.44878 264.741463-24.97561 24.97561-47.453659 49.95122-64.936586 72.429268L77.42439 399.609756c-27.473171 4.995122-49.95122 24.97561-57.443902 52.448781s-2.497561 54.946341 17.482927 74.926829l159.843902 159.843902c4.995122 4.995122 9.990244 4.995122 14.985366 7.492683 2.497561 4.995122 4.995122 7.492683 7.492683 12.487805-14.985366 2.497561-27.473171 9.990244-37.463415 19.980488-24.97561 24.97561-119.882927 192.312195-139.863414 227.278049-4.995122 9.990244-4.995122 22.478049 4.995122 29.970731 4.995122 4.995122 9.990244 7.492683 17.482926 7.492683 4.995122 0 7.492683 0 12.487805-2.497561 32.468293-19.980488 202.302439-114.887805 227.278049-139.863414 12.487805-12.487805 19.980488-27.473171 22.478049-42.458537 2.497561 0 4.995122 2.497561 7.492683 2.497561 0 7.492683 2.497561 14.985366 7.492683 19.980488l152.351219 152.351219c14.985366 14.985366 32.468293 22.478049 52.448781 22.478049 7.492683 0 14.985366 0 22.478048-2.497561 27.473171-7.492683 47.453659-29.970732 52.448781-57.443902l34.965854-202.302439v-9.990244c27.473171-22.478049 52.44878-44.956098 69.931707-62.439025 199.804878-209.795122 244.760976-467.043902 257.24878-569.443902zM72.429268 489.521951c-7.492683-7.492683-9.990244-14.985366-4.995122-24.97561 2.497561-7.492683 9.990244-14.985366 19.980488-14.985365l154.848781-27.473171c-27.473171 44.956098-44.956098 89.912195-52.448781 132.370732-2.497561 17.482927-2.497561 34.965854-2.497561 49.951219l-114.887805-114.887805z m202.302439 294.712195c0 9.990244-2.497561 17.482927-9.990244 24.97561-9.990244 9.990244-67.434146 44.956098-134.868292 84.917073 39.960976-67.434146 74.926829-124.878049 84.917073-134.868292 7.492683-7.492683 14.985366-9.990244 24.97561-9.990244 7.492683 0 12.487805 2.497561 17.482926 4.995122 2.497561 2.497561 7.492683 4.995122 9.990244 9.990244 4.995122 4.995122 7.492683 12.487805 7.492683 19.980487z m292.214634 144.858537c-2.497561 9.990244-7.492683 17.482927-17.482926 19.980488-9.990244 2.497561-17.482927 0-24.97561-4.995122L407.102439 824.195122h9.990244c62.439024 0 124.878049-27.473171 177.326829-59.941463l-27.473171 164.839024z m-262.243902-199.804878c-2.497561-2.497561-2.497561-4.995122-4.995122-4.995122-2.497561-2.497561-7.492683-4.995122-9.990244-7.492683-42.458537-44.956098-59.941463-94.907317-49.951219-154.84878 9.990244-72.429268 59.941463-152.35122 144.858536-237.268293 209.795122-209.795122 442.068293-244.760976 531.980488-249.756098 4.995122 0 9.990244 2.497561 12.487805 4.995122 2.497561 2.497561 4.995122 7.492683 4.995122 14.985366-9.990244 97.404878-54.946341 339.668293-247.258537 531.980488-149.853659 149.853659-284.721951 184.819512-382.126829 102.4z" fill="#3639A4" p-id="466"></path>
</svg>
