<svg class="icon" viewBox="0 0 1024 1024" version="1.1" xmlns="http://www.w3.org/2000/svg" p-id="2384">
    <path d="M473.8 474.5H226.5C166.1 474.5 117 425.4 117 365V210.8c0-51.4 41.8-93.1 93.1-93.1h154.2c60.4 0 109.6 49.2 109.6 109.6v247.2zM210.1 171.7c-21.6 0-39.1 17.6-39.1 39.1V365c0 30.6 24.9 55.6 55.6 55.6h193.3V227.3c0-30.7-24.9-55.6-55.6-55.6H210.1zM364.3 907.4H210.1c-51.3 0-93.1-41.8-93.1-93.1V660.2c0-60.4 49.1-109.6 109.6-109.6h247.3v247.3c-0.1 60.4-49.2 109.5-109.6 109.5zM226.5 604.6c-30.6 0-55.6 24.9-55.6 55.6v154.2c0 21.6 17.6 39.1 39.1 39.1h154.2c30.6 0 55.6-24.9 55.6-55.6V604.6H226.5zM797.2 474.5H549.9V227.3c0-60.4 49.1-109.6 109.6-109.6h154.2c51.3 0 93.1 41.8 93.1 93.1V365c-0.1 60.4-49.2 109.5-109.6 109.5z m-193.3-53.9h193.3c30.6 0 55.6-24.9 55.6-55.6V210.8c0-21.6-17.6-39.1-39.1-39.1H659.4c-30.6 0-55.6 24.9-55.6 55.6v193.3zM813.6 907.4H659.4c-60.4 0-109.6-49.1-109.6-109.6V550.6h247.3c60.4 0 109.6 49.2 109.6 109.6v154.2c0 51.3-41.8 93-93.1 93zM603.9 604.6v193.3c0 30.6 24.9 55.6 55.6 55.6h154.2c21.6 0 39.1-17.6 39.1-39.1V660.2c0-30.7-24.9-55.6-55.6-55.6H603.9z" fill="#3D61F6" p-id="2385"></path>
</svg>
